<svg xmlns="http://www.w3.org/2000/svg" xmlns:xlink="http://www.w3.org/1999/xlink" width="1600" zoomAndPan="magnify" viewBox="0 0 1200 675.000002" height="900" preserveAspectRatio="xMidYMid meet" version="1.0"><defs><g/><clipPath id="d2d83d52af"><path d="M 516 541 L 689 541 L 689 674 L 516 674 Z M 516 541 " clip-rule="nonzero"/></clipPath><clipPath id="524e682b8b"><path d="M 634 513 L 789 513 L 789 674 L 634 674 Z M 634 513 " clip-rule="nonzero"/></clipPath></defs><path stroke-linecap="butt" transform="matrix(1.033307, -2.387502, 2.387502, 1.033307, 408.73612, 294.768002)" fill="none" stroke-linejoin="miter" d="M 7.500421 1.000477 L 68.313113 0.999536 " stroke="#cb6ce6" stroke-width="2" stroke-opacity="1" stroke-miterlimit="4"/><path stroke-linecap="round" transform="matrix(1.033307, -2.387502, 2.387502, 1.033307, 408.73612, 294.768002)" fill-opacity="1" fill="#cb6ce6" fill-rule="nonzero" stroke-linejoin="round" d="M 0.999806 0.999799 C 0.999817 -0.655963 2.343807 -2.000074 3.999569 -2.000062 C 5.65671 -2.000648 7.00082 -0.656658 6.999431 0.9997 C 7.000016 2.656841 5.657405 4.000355 3.999668 3.999562 C 2.342527 4.000147 1.000392 2.65694 0.999806 0.999799 " stroke="#cb6ce6" stroke-width="2" stroke-opacity="1" stroke-miterlimit="4"/><path stroke-linecap="round" transform="matrix(1.033307, -2.387502, 2.387502, 1.033307, 408.73612, 294.768002)" fill-opacity="1" fill="#cb6ce6" fill-rule="nonzero" stroke-linejoin="round" d="M 74.813728 1.000214 C 74.814313 2.657354 73.471105 3.99949 71.813965 4.000075 C 70.156824 4.000661 68.814092 2.656075 68.814103 1.000312 C 68.813518 -0.656828 70.156129 -2.000342 71.813866 -1.999549 C 73.471007 -2.000135 74.813143 -0.656927 74.813728 1.000214 " stroke="#cb6ce6" stroke-width="2" stroke-opacity="1" stroke-miterlimit="4"/><path stroke-linecap="butt" transform="matrix(1.931569, -1.74268, 1.74268, 1.931569, 398.973483, 202.291698)" fill="none" stroke-linejoin="miter" d="M 7.500269 0.999815 L 45.94457 0.999818 " stroke="#cb6ce6" stroke-width="2" stroke-opacity="1" stroke-miterlimit="4"/><path stroke-linecap="round" transform="matrix(1.931569, -1.74268, 1.74268, 1.931569, 398.973483, 202.291698)" fill-opacity="1" fill="#cb6ce6" fill-rule="nonzero" stroke-linejoin="round" d="M 1.000232 1.000148 C 1.000131 -0.656223 2.343965 -2.000016 4.000336 -2.000117 C 5.656707 -2.000218 7.0005 -0.656384 7.000601 0.999987 C 6.999696 2.657473 5.656868 4.000151 4.000497 4.000252 C 2.343011 3.999347 1.000333 2.656519 1.000232 1.000148 " stroke="#cb6ce6" stroke-width="2" stroke-opacity="1" stroke-miterlimit="4"/><path stroke-linecap="butt" transform="matrix(2.313005, -1.190755, 1.190755, 2.313005, 326.163015, 237.289003)" fill="none" stroke-linejoin="miter" d="M 7.500528 1.000501 L 36.216028 0.999555 " stroke="#cb6ce6" stroke-width="2" stroke-opacity="1" stroke-miterlimit="4"/><path stroke-linecap="round" transform="matrix(2.313005, -1.190755, 1.190755, 2.313005, 326.163015, 237.289003)" fill-opacity="1" fill="#cb6ce6" fill-rule="nonzero" stroke-linejoin="round" d="M 1.000601 0.999835 C 1.000637 -0.656879 2.344114 -2.000274 4.000828 -2.000238 C 5.657542 -2.000201 6.999602 -0.657412 6.999566 0.999302 C 7.000864 2.656703 5.657388 4.000098 4.000674 4.000062 C 2.34396 4.000026 1.000565 2.656549 1.000601 0.999835 " stroke="#cb6ce6" stroke-width="2" stroke-opacity="1" stroke-miterlimit="4"/><path stroke-linecap="butt" transform="matrix(2.512872, -0.673322, 0.673322, 2.512872, 245.514381, 253.221518)" fill="none" stroke-linejoin="miter" d="M 7.500426 0.999764 L 35.889971 1.00057 " stroke="#cb6ce6" stroke-width="2" stroke-opacity="1" stroke-miterlimit="4"/><path stroke-linecap="round" transform="matrix(2.512872, -0.673322, 0.673322, 2.512872, 245.514381, 253.221518)" fill-opacity="1" fill="#cb6ce6" fill-rule="nonzero" stroke-linejoin="round" d="M 0.999354 1.000397 C 1.000273 -0.65645 2.342836 -2.000439 3.999682 -1.999519 C 5.656917 -2.000051 7.000518 -0.656038 6.999987 0.999358 C 7.000518 2.656593 5.656505 4.000194 3.999659 3.999275 C 2.342424 3.999806 1.000274 2.656182 0.999354 1.000397 " stroke="#cb6ce6" stroke-width="2" stroke-opacity="1" stroke-miterlimit="4"/><path stroke-linecap="butt" transform="matrix(-2.45654, -0.856329, 0.856329, -2.45654, 564.769242, 340.919198)" fill="none" stroke-linejoin="miter" d="M 7.49956 1.000612 L 60.152092 0.999813 " stroke="#cb6ce6" stroke-width="2" stroke-opacity="1" stroke-miterlimit="4"/><path stroke-linecap="round" transform="matrix(-2.45654, -0.856329, 0.856329, -2.45654, 564.769242, 340.919198)" fill-opacity="1" fill="#cb6ce6" fill-rule="nonzero" stroke-linejoin="round" d="M 1.000494 1.000178 C 1.000165 -0.656636 2.343259 -1.999406 4.000073 -1.999736 C 5.656887 -2.000065 6.999657 -0.656971 6.999987 0.999843 C 7.000316 2.656657 5.657222 3.999427 4.000408 3.999757 C 2.343594 4.000086 1.000824 2.656992 1.000494 1.000178 " stroke="#cb6ce6" stroke-width="2" stroke-opacity="1" stroke-miterlimit="4"/><path stroke-linecap="butt" transform="matrix(-1.902693, -1.774162, 1.774162, -1.902693, 638.266818, 273.764754)" fill="none" stroke-linejoin="miter" d="M 7.500656 0.999998 L 79.14819 0.999454 " stroke="#cb6ce6" stroke-width="2" stroke-opacity="1" stroke-miterlimit="4"/><path stroke-linecap="round" transform="matrix(-1.902693, -1.774162, 1.774162, -1.902693, 638.266818, 273.764754)" fill-opacity="1" fill="#cb6ce6" fill-rule="nonzero" stroke-linejoin="round" d="M 0.999931 0.999042 C 0.999398 -0.657241 2.342448 -1.999897 3.999755 -1.999332 C 5.656038 -1.999865 7.000816 -0.656741 7.000251 1.000566 C 7.000784 2.656849 5.656636 4.000529 3.999329 3.999964 C 2.343046 4.000497 1.00039 2.657447 0.999931 0.999042 " stroke="#cb6ce6" stroke-width="2" stroke-opacity="1" stroke-miterlimit="4"/><path stroke-linecap="butt" transform="matrix(-1.300758, 2.25298, -2.25298, -1.300758, 778.477908, 15.229791)" fill="none" stroke-linejoin="miter" d="M 7.500675 0.999828 L 111.487842 0.999621 " stroke="#cb6ce6" stroke-width="2" stroke-opacity="1" stroke-miterlimit="4"/><path stroke-linecap="round" transform="matrix(-1.300758, 2.25298, -2.25298, -1.300758, 778.477908, 15.229791)" fill-opacity="1" fill="#cb6ce6" fill-rule="nonzero" stroke-linejoin="round" d="M 1.000217 0.99916 C 0.999736 -0.656356 2.342527 -2.000308 4.000094 -2.000239 C 5.656361 -1.999419 7.000313 -0.656628 6.999493 0.999638 C 6.999424 2.657205 5.657183 3.999106 4.000366 4.000337 C 2.342799 4.000268 1.000148 2.656727 1.000217 0.99916 " stroke="#cb6ce6" stroke-width="2" stroke-opacity="1" stroke-miterlimit="4"/><path stroke-linecap="butt" transform="matrix(0.618677, -2.526881, 2.526881, 0.618677, 709.885553, 247.906851)" fill="none" stroke-linejoin="miter" d="M 7.49973 0.999381 L 88.006073 0.999842 " stroke="#cb6ce6" stroke-width="2" stroke-opacity="1" stroke-miterlimit="4"/><path stroke-linecap="round" transform="matrix(0.618677, -2.526881, 2.526881, 0.618677, 709.885553, 247.906851)" fill-opacity="1" fill="#cb6ce6" fill-rule="nonzero" stroke-linejoin="round" d="M 0.999508 1.000175 C 1.000286 -0.657196 2.342623 -1.999948 3.999637 -2.000628 C 5.657009 -1.99985 6.99976 -0.657513 7.000441 0.999502 C 6.999663 2.656873 5.657325 3.999625 4.000311 4.000305 C 2.342939 3.999527 1.000188 2.65719 0.999508 1.000175 " stroke="#cb6ce6" stroke-width="2" stroke-opacity="1" stroke-miterlimit="4"/><path stroke-linecap="butt" transform="matrix(-1.795841, -1.882244, 1.882244, -1.795841, 786.152562, 320.678737)" fill="none" stroke-linejoin="miter" d="M 7.500013 1.00023 L 42.123344 0.99934 " stroke="#cb6ce6" stroke-width="2" stroke-opacity="1" stroke-miterlimit="4"/><path stroke-linecap="round" transform="matrix(-1.795841, -1.882244, 1.882244, -1.795841, 786.152562, 320.678737)" fill-opacity="1" fill="#cb6ce6" fill-rule="nonzero" stroke-linejoin="round" d="M 1.000363 0.999983 C 0.999676 -0.656773 2.343457 -1.999952 4.000213 -2.000638 C 5.657019 -1.999201 7.000147 -0.657544 6.999797 1.000299 C 7.000483 2.657055 5.656703 4.000233 3.999947 4.000919 C 2.343141 3.999482 1.000012 2.657825 1.000363 0.999983 " stroke="#cb6ce6" stroke-width="2" stroke-opacity="1" stroke-miterlimit="4"/><path stroke-linecap="butt" transform="matrix(-2.601517, -0.0000000045405, 0.0000000045405, -2.601517, 860.947887, 309.87137)" fill="none" stroke-linejoin="miter" d="M 7.49962 1.000124 L 28.021 1.000124 " stroke="#cb6ce6" stroke-width="2" stroke-opacity="1" stroke-miterlimit="4"/><path stroke-linecap="round" transform="matrix(-2.601517, -0.0000000045405, 0.0000000045405, -2.601517, 860.947887, 309.87137)" fill-opacity="1" fill="#cb6ce6" fill-rule="nonzero" stroke-linejoin="round" d="M 0.999506 1.000124 C 0.999506 -0.657563 2.343373 -1.999929 3.999558 -1.999929 C 5.657245 -1.999929 6.999611 -0.657563 6.999611 1.000124 C 6.999611 2.656309 5.657245 4.000176 3.999558 4.000176 C 2.343373 4.000176 0.999506 2.656309 0.999506 1.000124 " stroke="#cb6ce6" stroke-width="2" stroke-opacity="1" stroke-miterlimit="4"/><path stroke-linecap="butt" transform="matrix(-1.95072, 1.721215, -1.721215, -1.95072, 935.353382, 233.53282)" fill="none" stroke-linejoin="miter" d="M 7.500757 1.000167 L 43.97781 1.000005 " stroke="#cb6ce6" stroke-width="2" stroke-opacity="1" stroke-miterlimit="4"/><path stroke-linecap="round" transform="matrix(-1.95072, 1.721215, -1.721215, -1.95072, 935.353382, 233.53282)" fill-opacity="1" fill="#cb6ce6" fill-rule="nonzero" stroke-linejoin="round" d="M 1.000856 1.000052 C 0.999395 -0.657277 2.343057 -2.000813 4.000518 -2.000155 C 5.656852 -2.000491 7.000389 -0.656829 6.999731 1.000632 C 7.000066 2.656967 5.656405 4.000503 4.00007 4.000839 C 2.342609 4.000181 1.000199 2.657512 1.000856 1.000052 " stroke="#cb6ce6" stroke-width="2" stroke-opacity="1" stroke-miterlimit="4"/><path stroke-linecap="butt" transform="matrix(-2.478539, -0.7904, 0.7904, -2.478539, 944.8988, 340.945322)" fill="none" stroke-linejoin="miter" d="M 7.499452 1.000062 L 39.470706 0.999841 " stroke="#cb6ce6" stroke-width="2" stroke-opacity="1" stroke-miterlimit="4"/><path stroke-linecap="round" transform="matrix(-2.478539, -0.7904, 0.7904, -2.478539, 944.8988, 340.945322)" fill-opacity="1" fill="#cb6ce6" fill-rule="nonzero" stroke-linejoin="round" d="M 0.999969 1.000252 C 0.999738 -0.65608 2.342624 -1.999996 4.000387 -2.000683 C 5.657176 -1.999483 6.999661 -0.656142 6.999892 1.000191 C 7.000123 2.656524 5.657237 4.00044 4.000448 3.99924 C 2.342685 3.999927 1.0002 2.656585 0.999969 1.000252 " stroke="#cb6ce6" stroke-width="2" stroke-opacity="1" stroke-miterlimit="4"/><path stroke-linecap="butt" transform="matrix(2.505167, -0.701447, 0.701447, 2.505167, 631.212725, 262.199778)" fill="none" stroke-linejoin="miter" d="M 0.000148262 0.999315 L 32.206856 0.999893 " stroke="#cb6ce6" stroke-width="2" stroke-opacity="1" stroke-miterlimit="4"/><path stroke-linecap="butt" transform="matrix(1.945224, -1.727424, 1.727424, 1.945224, 549.71199, 334.612984)" fill="none" stroke-linejoin="miter" d="M -0.000648535 0.999622 L 41.368327 1.000049 " stroke="#cb6ce6" stroke-width="2" stroke-opacity="1" stroke-miterlimit="4"/><path stroke-linecap="butt" transform="matrix(0.817382, 2.469773, -2.469773, 0.817382, 486.735786, 128.132305)" fill="none" stroke-linejoin="miter" d="M -0.000217548 1.000085 L 82.177898 0.999686 " stroke="#cb6ce6" stroke-width="2" stroke-opacity="1" stroke-miterlimit="4"/><path stroke-linecap="butt" transform="matrix(2.14093, 1.47794, -1.47794, 2.14093, 340.319121, 230.26093)" fill="none" stroke-linejoin="miter" d="M -0.00031721 1.000445 L 36.92105 0.999897 " stroke="#cb6ce6" stroke-width="2" stroke-opacity="1" stroke-miterlimit="4"/><path stroke-linecap="butt" transform="matrix(0.0866217, 2.600074, -2.600074, 0.0866217, 769.453838, 26.078195)" fill="none" stroke-linejoin="miter" d="M -0.000268088 0.999335 L 108.118608 1.000166 " stroke="#cb6ce6" stroke-width="2" stroke-opacity="1" stroke-miterlimit="4"/><path stroke-linecap="butt" transform="matrix(-0.225116, -2.591759, 2.591759, -0.225116, 932.025193, 337.153127)" fill="none" stroke-linejoin="miter" d="M -0.000649845 1.000035 L 36.97953 1.000273 " stroke="#cb6ce6" stroke-width="2" stroke-opacity="1" stroke-miterlimit="4"/><g fill="#cb6ce6" fill-opacity="1"><g transform="translate(675.599737, 466.033498)"><g><path d="M 92 -93.421875 L 92 0 L 79.734375 0 L 22.015625 -78.875 L 22.015625 0 L 11.4375 0 L 11.4375 -93.421875 L 23.703125 -93.421875 L 81.421875 -14.8125 L 81.421875 -93.421875 Z M 92 -93.421875 "/></g></g></g><g fill="#cb6ce6" fill-opacity="1"><g transform="translate(784.805906, 466.033498)"><g><path d="M 40.640625 -8.46875 C 50.140625 -8.46875 56.957031 -12.414062 61.09375 -20.3125 L 72.671875 -20.3125 C 70.222656 -13.914062 66.34375 -8.742188 61.03125 -4.796875 C 55.71875 -0.847656 48.875 1.125 40.5 1.125 C 29.863281 1.125 21.207031 -2.398438 14.53125 -9.453125 C 8.039062 -16.316406 4.796875 -24.925781 4.796875 -35.28125 C 4.796875 -45.71875 7.898438 -54.320312 14.109375 -61.09375 C 20.691406 -68.15625 29.253906 -71.6875 39.796875 -71.6875 C 50.328125 -71.6875 58.882812 -68.15625 65.46875 -61.09375 C 71.675781 -54.320312 74.78125 -45.71875 74.78125 -35.28125 L 74.78125 -31.046875 L 15.65625 -31.046875 C 16.414062 -24.554688 19.003906 -19.191406 23.421875 -14.953125 C 27.941406 -10.628906 33.679688 -8.46875 40.640625 -8.46875 Z M 39.796875 -62.09375 C 33.304688 -62.09375 27.847656 -60.066406 23.421875 -56.015625 C 19.285156 -52.160156 16.742188 -47.128906 15.796875 -40.921875 L 63.78125 -40.921875 C 62.84375 -47.128906 60.300781 -52.160156 56.15625 -56.015625 C 51.738281 -60.066406 46.285156 -62.09375 39.796875 -62.09375 Z M 39.796875 -62.09375 "/></g></g></g><g fill="#cb6ce6" fill-opacity="1"><g transform="translate(869.179967, 466.033498)"><g><path d="M 53.203125 -56.296875 L 35.5625 0 L 23.421875 0 L 1.265625 -70.5625 L 12.5625 -70.5625 L 29.484375 -13.125 L 47.40625 -70.5625 L 58.984375 -70.5625 L 76.90625 -13.125 L 93.84375 -70.5625 L 105.125 -70.5625 L 82.96875 0 L 70.84375 0 Z M 53.203125 -56.296875 "/></g></g></g><g fill="#cb6ce6" fill-opacity="1"><g transform="translate(981.349046, 466.033498)"><g><path d="M 50.65625 -51.640625 C 49.71875 -58.984375 43.816406 -62.65625 32.953125 -62.65625 C 22.085938 -62.65625 16.65625 -59.269531 16.65625 -52.5 C 16.65625 -49.675781 17.804688 -47.535156 20.109375 -46.078125 C 22.410156 -44.617188 25.300781 -43.414062 28.78125 -42.46875 C 32.257812 -41.53125 36.046875 -40.660156 40.140625 -39.859375 C 44.234375 -39.054688 48.019531 -37.925781 51.5 -36.46875 C 54.976562 -35.019531 57.867188 -33.023438 60.171875 -30.484375 C 62.484375 -27.941406 63.640625 -24.457031 63.640625 -20.03125 C 63.640625 -13.164062 61.050781 -7.921875 55.875 -4.296875 C 50.707031 -0.679688 43.703125 1.125 34.859375 1.125 C 25.453125 1.125 17.972656 -1.222656 12.421875 -5.921875 C 7.335938 -10.066406 4.609375 -15.476562 4.234375 -22.15625 L 15.234375 -22.15625 C 15.898438 -15.664062 19.570312 -11.289062 26.25 -9.03125 C 28.695312 -8.28125 31.117188 -7.90625 33.515625 -7.90625 C 35.910156 -7.90625 38.144531 -8.046875 40.21875 -8.328125 C 42.289062 -8.609375 44.3125 -9.125 46.28125 -9.875 C 50.800781 -11.664062 53.0625 -14.722656 53.0625 -19.046875 C 53.0625 -21.960938 51.90625 -24.195312 49.59375 -25.75 C 47.289062 -27.300781 44.398438 -28.570312 40.921875 -29.5625 C 37.441406 -30.550781 33.65625 -31.441406 29.5625 -32.234375 C 25.46875 -33.035156 21.679688 -34.140625 18.203125 -35.546875 C 14.722656 -36.960938 11.828125 -38.894531 9.515625 -41.34375 C 7.210938 -43.789062 6.0625 -47.175781 6.0625 -51.5 C 6.0625 -57.894531 8.390625 -62.859375 13.046875 -66.390625 C 17.703125 -69.921875 24.59375 -71.6875 33.71875 -71.6875 C 42.375 -71.6875 49.195312 -69.613281 54.1875 -65.46875 C 58.320312 -61.988281 60.71875 -57.378906 61.375 -51.640625 Z M 50.65625 -51.640625 "/></g></g></g><g fill="#cb6ce6" fill-opacity="1"><g transform="translate(149.190768, 468.753111)"><g><path d="M 8.59375 0 L 8.59375 -92.390625 L 23.3125 -92.390625 L 23.3125 0 Z M 8.59375 0 "/></g></g></g><g fill="#cb6ce6" fill-opacity="1"><g transform="translate(186.78817, 468.753111)"><g><path d="M 58.40625 0 L 31.90625 -44.125 L 22.46875 -61.046875 L 22.46875 0 L 8.59375 0 L 8.59375 -92.390625 L 19.984375 -92.390625 L 45.78125 -47.453125 L 54.796875 -30.515625 L 54.796875 -92.390625 L 68.671875 -92.390625 L 68.671875 0 Z M 58.40625 0 "/></g></g></g><g fill="#cb6ce6" fill-opacity="1"><g transform="translate(269.751545, 468.753111)"><g><path d="M 66.875 -27.609375 C 66.875 -23.347656 66.296875 -19.390625 65.140625 -15.734375 C 63.984375 -12.085938 62.175781 -8.921875 59.71875 -6.234375 C 57.269531 -3.554688 54.171875 -1.457031 50.421875 0.0625 C 46.679688 1.59375 42.222656 2.359375 37.046875 2.359375 C 31.859375 2.359375 27.390625 1.59375 23.640625 0.0625 C 19.898438 -1.457031 16.804688 -3.554688 14.359375 -6.234375 C 11.910156 -8.921875 10.109375 -12.085938 8.953125 -15.734375 C 7.796875 -19.390625 7.21875 -23.347656 7.21875 -27.609375 L 7.21875 -64.78125 C 7.21875 -69.039062 7.796875 -72.972656 8.953125 -76.578125 C 10.109375 -80.179688 11.910156 -83.320312 14.359375 -86 C 16.804688 -88.6875 19.898438 -90.789062 23.640625 -92.3125 C 27.390625 -93.84375 31.859375 -94.609375 37.046875 -94.609375 C 42.222656 -94.609375 46.679688 -93.84375 50.421875 -92.3125 C 54.171875 -90.789062 57.269531 -88.6875 59.71875 -86 C 62.175781 -83.320312 63.984375 -80.179688 65.140625 -76.578125 C 66.296875 -72.972656 66.875 -69.039062 66.875 -64.78125 Z M 52.171875 -65.765625 C 52.171875 -70.472656 50.96875 -74.332031 48.5625 -77.34375 C 46.15625 -80.351562 42.316406 -81.859375 37.046875 -81.859375 C 31.859375 -81.859375 28.0625 -80.351562 25.65625 -77.34375 C 23.257812 -74.332031 22.0625 -70.472656 22.0625 -65.765625 L 22.0625 -26.640625 C 22.0625 -21.921875 23.257812 -18.054688 25.65625 -15.046875 C 28.0625 -12.046875 31.859375 -10.546875 37.046875 -10.546875 C 42.316406 -10.546875 46.15625 -12.046875 48.5625 -15.046875 C 50.96875 -18.054688 52.171875 -21.921875 52.171875 -26.640625 Z M 52.171875 -65.765625 "/></g></g></g><g fill="#cb6ce6" fill-opacity="1"><g transform="translate(349.524046, 468.753111)"><g><path d="M 41.484375 0 L 27.609375 0 L 1.671875 -92.390625 L 17.203125 -92.390625 L 35.09375 -20.53125 L 52.71875 -92.390625 L 67.84375 -92.390625 Z M 41.484375 0 "/></g></g></g><g fill="#cb6ce6" fill-opacity="1"><g transform="translate(424.163358, 468.753111)"><g><path d="M 50.78125 0 L 44.8125 -23.859375 L 21.09375 -23.859375 L 15.40625 0 L 0.96875 0 L 25.390625 -92.390625 L 40.921875 -92.390625 L 65.625 0 Z M 32.734375 -72.421875 L 24 -36.078125 L 41.765625 -36.078125 Z M 32.734375 -72.421875 "/></g></g></g><g fill="#cb6ce6" fill-opacity="1"><g transform="translate(496.444213, 468.753111)"><g><path d="M 8.59375 0 L 8.59375 -92.390625 L 23.3125 -92.390625 L 23.3125 0 Z M 8.59375 0 "/></g></g></g><g fill="#cb6ce6" fill-opacity="1"><g transform="translate(534.041602, 468.753111)"><g><path d="M 23.3125 -79.359375 L 23.3125 -52.578125 L 50.078125 -52.578125 L 50.078125 -39.8125 L 23.3125 -39.8125 L 23.3125 0 L 8.59375 0 L 8.59375 -92.53125 L 58.265625 -92.53125 L 58.265625 -79.359375 Z M 23.3125 -79.359375 "/></g></g></g><path stroke-linecap="butt" transform="matrix(2.44338, -0.893188, 0.893188, 2.44338, 406.193104, 611.77809)" fill="none" stroke-linejoin="miter" d="M 7.499348 1.000121 L 53.089429 1.000845 " stroke="#cb6ce6" stroke-width="2" stroke-opacity="1" stroke-miterlimit="4"/><path stroke-linecap="round" transform="matrix(2.44338, -0.893188, 0.893188, 2.44338, 406.193104, 611.77809)" fill-opacity="1" fill="#cb6ce6" fill-rule="nonzero" stroke-linejoin="round" d="M 1.00059 1.000152 C 1.000188 -0.656257 2.343676 -2.000455 3.999569 -1.999448 C 5.657388 -1.999335 7.000176 -0.656362 7.000579 1.000047 C 6.999571 2.655939 5.656083 4.000138 3.999674 4.00054 C 2.343781 3.999533 0.999583 2.656044 1.00059 1.000152 " stroke="#cb6ce6" stroke-width="2" stroke-opacity="1" stroke-miterlimit="4"/><g clip-path="url(#d2d83d52af)"><path stroke-linecap="butt" transform="matrix(2.105708, 1.527705, -1.527705, 2.105708, 532.00031, 557.316736)" fill="none" stroke-linejoin="miter" d="M 7.499766 0.99954 L 61.000518 1.00001 " stroke="#cb6ce6" stroke-width="2" stroke-opacity="1" stroke-miterlimit="4"/></g><path stroke-linecap="round" transform="matrix(2.105708, 1.527705, -1.527705, 2.105708, 532.00031, 557.316736)" fill-opacity="1" fill="#cb6ce6" fill-rule="nonzero" stroke-linejoin="round" d="M 0.999732 0.999753 C 0.99988 -0.656939 2.342396 -2.000103 4.000303 -2.000836 C 5.656995 -2.000687 6.999826 -0.656074 6.999677 1.000617 C 6.999528 2.657309 5.657012 4.000473 4.00032 4.000325 C 2.343629 4.000176 0.999583 2.656444 0.999732 0.999753 " stroke="#cb6ce6" stroke-width="2" stroke-opacity="1" stroke-miterlimit="4"/><g clip-path="url(#524e682b8b)"><path stroke-linecap="butt" transform="matrix(1.769503, -1.907026, 1.907026, 1.769503, 648.795452, 657.828482)" fill="none" stroke-linejoin="miter" d="M 7.499267 1.000106 L 60.963404 1.000373 " stroke="#cb6ce6" stroke-width="2" stroke-opacity="1" stroke-miterlimit="4"/></g><path stroke-linecap="round" transform="matrix(1.769503, -1.907026, 1.907026, 1.769503, 648.795452, 657.828482)" fill-opacity="1" fill="#cb6ce6" fill-rule="nonzero" stroke-linejoin="round" d="M 1.000051 1.000307 C 1.000425 -0.657152 2.34369 -1.999822 4.000128 -2.000548 C 5.657588 -2.000174 7.000258 -0.656909 6.999883 1.000551 C 7.00061 2.656989 5.657344 3.999659 3.999885 3.999284 C 2.343446 4.000011 1.000777 2.656746 1.000051 1.000307 " stroke="#cb6ce6" stroke-width="2" stroke-opacity="1" stroke-miterlimit="4"/><path stroke-linecap="butt" transform="matrix(-2.588214, 0.262748, -0.262748, -2.588214, 768.145544, 545.937578)" fill="none" stroke-linejoin="miter" d="M 7.499452 0.999813 L 89.28243 0.999819 " stroke="#cb6ce6" stroke-width="2" stroke-opacity="1" stroke-miterlimit="4"/><path stroke-linecap="round" transform="matrix(-2.588214, 0.262748, -0.262748, -2.588214, 768.145544, 545.937578)" fill-opacity="1" fill="#cb6ce6" fill-rule="nonzero" stroke-linejoin="round" d="M 1.000662 0.999615 C 0.999864 -0.657617 2.343562 -2.000269 4.000643 -1.999573 C 5.656381 -2.000523 7.000527 -0.656673 6.999832 1.000407 C 7.00063 2.65764 5.656932 4.000292 3.999851 3.999596 C 2.342619 4.000394 0.999967 2.656696 1.000662 0.999615 " stroke="#cb6ce6" stroke-width="2" stroke-opacity="1" stroke-miterlimit="4"/></svg>